<svg width="92" height="140" viewBox="0 0 92 140" xmlns="http://www.w3.org/2000/svg">
  <rect x="14" y="52" width="52" height="52" rx="8" fill="white" stroke="#DDD" stroke-width="1"/>
  <rect x="26" y="52" width="28" height="36" rx="4" fill="#4A90D9" opacity="0.9"/>
  <rect x="33" y="48" width="14" height="8" rx="3" fill="#4A90D9"/>
  <rect x="30" y="72" width="20" height="14" rx="3" fill="none" stroke="#357ABD" stroke-width="1.2"/>
  <line x1="38" y1="72" x2="36" y2="82" stroke="#C0392B" stroke-width="1.5"/>
  <rect x="20" y="102" width="14" height="20" rx="4" fill="#2C2C4C"/>
  <rect x="46" y="102" width="14" height="20" rx="4" fill="#2C2C4C"/>
  <ellipse cx="27" cy="123" rx="9" ry="5" fill="#1A1A2E"/>
  <ellipse cx="53" cy="123" rx="9" ry="5" fill="#1A1A2E"/>
  <circle cx="40" cy="36" r="22" fill="#F5C6A0"/>
  <rect x="22" y="6" width="36" height="18" rx="4" fill="white" stroke="#DDD" stroke-width="1"/>
  <ellipse cx="40" cy="6" rx="20" ry="6" fill="white" stroke="#DDD" stroke-width="1"/>
  <ellipse cx="40" cy="24" rx="22" ry="5" fill="white" stroke="#DDD" stroke-width="1"/>
  <circle cx="33" cy="36" r="3" fill="#1A1A2E"/>
  <circle cx="47" cy="36" r="3" fill="#1A1A2E"/>
  <circle cx="34" cy="35" r="1" fill="white"/>
  <circle cx="48" cy="35" r="1" fill="white"/>
  <path d="M33 44 Q40 50 47 44" stroke="#9B4D2E" stroke-width="1.5" fill="none" stroke-linecap="round"/>
  <rect x="0" y="56" width="12" height="32" rx="6" fill="#F5C6A0"/>
  <rect x="68" y="56" width="12" height="32" rx="6" fill="#F5C6A0"/>
</svg>