<svg width="86" height="140" viewBox="0 0 86 140" xmlns="http://www.w3.org/2000/svg">
  <rect x="14" y="52" width="50" height="52" rx="8" fill="white" stroke="#DDD" stroke-width="1"/>
  <rect x="26" y="52" width="26" height="38" rx="4" fill="#27AE60" opacity="0.9"/>
  <rect x="33" y="48" width="14" height="8" rx="3" fill="#27AE60"/>
  <ellipse cx="39" cy="68" rx="5" ry="3" fill="white" opacity="0.6"/>
  <rect x="20" y="102" width="14" height="20" rx="4" fill="#4A3728"/>
  <rect x="44" y="102" width="14" height="20" rx="4" fill="#4A3728"/>
  <ellipse cx="27" cy="123" rx="9" ry="5" fill="#2A1A10"/>
  <ellipse cx="51" cy="123" rx="9" ry="5" fill="#2A1A10"/>
  <circle cx="39" cy="36" r="22" fill="#FFDFC4"/>
  <rect x="18" y="18" width="42" height="10" rx="4" fill="#F39C12"/>
  <ellipse cx="60" cy="22" rx="5" ry="7" fill="#F39C12"/>
  <ellipse cx="32" cy="36" rx="3.5" ry="3" fill="#1A1A2E"/>
  <ellipse cx="46" cy="36" rx="3.5" ry="3" fill="#1A1A2E"/>
  <circle cx="33" cy="35" r="1" fill="white"/>
  <circle cx="47" cy="35" r="1" fill="white"/>
  <path d="M32 44 Q39 52 46 44" stroke="#C07060" stroke-width="1.5" fill="none" stroke-linecap="round"/>
  <circle cx="29" cy="43" r="2" fill="#FFB3A7"/>
  <circle cx="49" cy="43" r="2" fill="#FFB3A7"/>
  <rect x="0" y="56" width="12" height="32" rx="6" fill="#FFDFC4"/>
  <rect x="66" y="56" width="12" height="32" rx="6" fill="#FFDFC4"/>
</svg>