<svg width="76" height="120" viewBox="0 0 76 120" xmlns="http://www.w3.org/2000/svg">
  <rect x="14" y="44" width="44" height="44" rx="8" fill="white" stroke="#DDD" stroke-width="1"/>
  <rect x="22" y="44" width="28" height="32" rx="4" fill="#F7C948" opacity="0.9"/>
  <rect x="29" y="40" width="14" height="8" rx="3" fill="#F7C948"/>
  <ellipse cx="36" cy="62" rx="4" ry="3" fill="#C8855A" opacity="0.7"/>
  <rect x="18" y="86" width="12" height="18" rx="4" fill="#2C2C4C"/>
  <rect x="36" y="86" width="12" height="18" rx="4" fill="#2C2C4C"/>
  <ellipse cx="24" cy="105" rx="8" ry="4" fill="#1A1A2E"/>
  <ellipse cx="42" cy="105" rx="8" ry="4" fill="#1A1A2E"/>
  <circle cx="36" cy="28" r="20" fill="#F5C6A0"/>
  <ellipse cx="36" cy="12" rx="18" ry="9" fill="#4B2E0D"/>
  <path d="M18 15 Q20 5 28 10" stroke="#4B2E0D" stroke-width="3" fill="none"/>
  <path d="M54 15 Q52 5 44 10" stroke="#4B2E0D" stroke-width="3" fill="none"/>
  <circle cx="30" cy="27" r="3" fill="#1A1A2E"/>
  <circle cx="42" cy="27" r="3" fill="#1A1A2E"/>
  <circle cx="31" cy="26" r="1" fill="white"/>
  <circle cx="43" cy="26" r="1" fill="white"/>
  <path d="M52 16 Q55 12 53 20" fill="#B0D0E8"/>
  <path d="M30 35 Q36 40 42 35" stroke="#9B4D2E" stroke-width="1.5" fill="none" stroke-linecap="round"/>
  <rect x="0" y="48" width="11" height="28" rx="5" fill="#F5C6A0"/>
  <rect x="57" y="48" width="11" height="28" rx="5" fill="#F5C6A0"/>
</svg>