<svg width="88" height="140" viewBox="0 0 88 140" xmlns="http://www.w3.org/2000/svg">
  <rect x="12" y="52" width="52" height="52" rx="8" fill="white" stroke="#DDD" stroke-width="1"/>
  <rect x="24" y="52" width="28" height="38" rx="4" fill="#C0392B" opacity="0.9"/>
  <rect x="31" y="48" width="14" height="8" rx="3" fill="#C0392B"/>
  <rect x="27" y="74" width="18" height="12" rx="2" fill="#E8E8E8"/>
  <line x1="27" y1="78" x2="45" y2="78" stroke="#CCC" stroke-width="1"/>
  <rect x="18" y="102" width="14" height="20" rx="4" fill="#1A1A2E"/>
  <rect x="44" y="102" width="14" height="20" rx="4" fill="#1A1A2E"/>
  <ellipse cx="25" cy="123" rx="9" ry="5" fill="#0A0A18"/>
  <ellipse cx="51" cy="123" rx="9" ry="5" fill="#0A0A18"/>
  <circle cx="38" cy="36" r="22" fill="#8D5524"/>
  <ellipse cx="38" cy="18" rx="22" ry="16" fill="#1A0A00"/>
  <circle cx="20" cy="22" r="9" fill="#1A0A00"/>
  <circle cx="56" cy="22" r="9" fill="#1A0A00"/>
  <circle cx="31" cy="36" r="3" fill="#1A0A00"/>
  <circle cx="45" cy="36" r="3" fill="#1A0A00"/>
  <circle cx="32" cy="35" r="1" fill="white"/>
  <circle cx="46" cy="35" r="1" fill="white"/>
  <path d="M29 44 Q38 54 47 44" stroke="#5C3010" stroke-width="2" fill="none" stroke-linecap="round"/>
  <rect x="0" y="56" width="12" height="32" rx="6" fill="#8D5524"/>
  <rect x="64" y="56" width="12" height="32" rx="6" fill="#8D5524"/>
</svg>