<svg width="80" height="135" viewBox="0 0 80 135" xmlns="http://www.w3.org/2000/svg">
  <rect x="10" y="54" width="48" height="48" rx="8" fill="#8B5E83"/>
  <rect x="16" y="100" width="14" height="20" rx="4" fill="#5C3A6E"/>
  <rect x="38" y="100" width="14" height="20" rx="4" fill="#5C3A6E"/>
  <ellipse cx="23" cy="121" rx="10" ry="5" fill="#2E1A3E"/>
  <ellipse cx="45" cy="121" rx="10" ry="5" fill="#5C3A6E"/>
  <path d="M10 80 L34 72 L58 80" fill="#6B3F6B"/>
  <circle cx="34" cy="38" r="22" fill="#F5C6A0"/>
  <ellipse cx="34" cy="18" rx="18" ry="9" fill="#2C1810"/>
  <circle cx="34" cy="13" r="7" fill="#2C1810"/>
  <ellipse cx="27" cy="36" rx="3.5" ry="3" fill="#1A1A2E"/>
  <ellipse cx="41" cy="36" rx="3.5" ry="3" fill="#1A1A2E"/>
  <circle cx="28" cy="35" r="1" fill="white"/>
  <circle cx="42" cy="35" r="1" fill="white"/>
  <path d="M27 44 Q34 50 41 44" stroke="#C0687A" stroke-width="2" fill="none" stroke-linecap="round"/>
  <rect x="0" y="60" width="10" height="28" rx="5" fill="#F5C6A0"/>
  <rect x="58" y="60" width="10" height="28" rx="5" fill="#F5C6A0"/>
</svg>