<svg width="72" height="110" viewBox="0 0 72 110" xmlns="http://www.w3.org/2000/svg">
  <rect x="16" y="46" width="38" height="38" rx="8" fill="#F7C948"/>
  <rect x="20" y="82" width="12" height="18" rx="4" fill="#E8B320"/>
  <rect x="38" y="82" width="12" height="18" rx="4" fill="#E8B320"/>
  <ellipse cx="26" cy="101" rx="8" ry="4" fill="#C8A000"/>
  <ellipse cx="44" cy="101" rx="8" ry="4" fill="#C8A000"/>
  <circle cx="15" cy="20" r="7" fill="#C0392B"/>
  <circle cx="55" cy="20" r="7" fill="#C0392B"/>
  <circle cx="35" cy="30" r="20" fill="#FDBCB4"/>
  <ellipse cx="35" cy="17" rx="17" ry="8" fill="#4B2E0D"/>
  <circle cx="28" cy="29" r="4" fill="#1A1A2E"/>
  <circle cx="42" cy="29" r="4" fill="#1A1A2E"/>
  <circle cx="29.5" cy="27.5" r="1.5" fill="white"/>
  <circle cx="43.5" cy="27.5" r="1.5" fill="white"/>
  <path d="M27 38 Q35 46 43 38" stroke="#C07060" stroke-width="1.5" fill="#F5AFA0" stroke-linecap="round"/>
  <rect x="2" y="50" width="10" height="24" rx="5" fill="#FDBCB4"/>
  <rect x="58" y="50" width="10" height="24" rx="5" fill="#FDBCB4"/>
</svg>