<svg width="80" height="130" viewBox="0 0 80 130" xmlns="http://www.w3.org/2000/svg">
  <rect x="18" y="54" width="44" height="46" rx="8" fill="#4A90D9"/>
  <rect x="22" y="98" width="14" height="20" rx="4" fill="#2C5F8A"/>
  <rect x="44" y="98" width="14" height="20" rx="4" fill="#2C5F8A"/>
  <ellipse cx="29" cy="119" rx="9" ry="5" fill="#1A1A2E"/>
  <ellipse cx="51" cy="119" rx="9" ry="5" fill="#1A1A2E"/>
  <rect x="18" y="68" width="44" height="6" rx="2" fill="#357ABD"/>
  <circle cx="40" cy="40" r="22" fill="#FDBCB4"/>
  <ellipse cx="40" cy="20" rx="22" ry="10" fill="#4B2E0D"/>
  <circle cx="33" cy="38" r="3" fill="#1A1A2E"/>
  <circle cx="47" cy="38" r="3" fill="#1A1A2E"/>
  <circle cx="34" cy="37" r="1" fill="white"/>
  <circle cx="48" cy="37" r="1" fill="white"/>
  <path d="M33 46 Q40 52 47 46" stroke="#9B4D2E" stroke-width="1.5" fill="none" stroke-linecap="round"/>
  <rect x="4" y="58" width="12" height="30" rx="6" fill="#FDBCB4"/>
  <rect x="64" y="58" width="12" height="30" rx="6" fill="#FDBCB4"/>
</svg>